<svg xmlns="http://www.w3.org/2000/svg" viewBox="0 0 512 512" fill="none">
    <defs>
        <linearGradient id="gradTop" x1="0%" y1="0%" x2="100%" y2="100%">
            <stop offset="0%" stop-color="#14b8a6" />
            <stop offset="100%" stop-color="#059669" />
        </linearGradient>
        <filter id="shadow" x="-10%" y="-10%" width="120%" height="120%">
            <feDropShadow dx="0" dy="8" stdDeviation="6" flood-opacity="0.1" />
        </filter>
    </defs>
    <!-- Background Shield/Teardrop -->
    <path d="M256 16 C 390 16 496 122 496 256 C 496 390 390 496 256 496 C 122 496 16 390 16 256 C 16 122 122 16 256 16 Z" fill="#ebfdf5" />
    
    <!-- Outer Rim -->
    <circle cx="256" cy="256" r="240" stroke="url(#gradTop)" stroke-width="8" opacity="0.3" />

    <!-- Gradient Cross -->
    <path d="M208 128 H 304 V 208 H 384 V 304 H 304 V 384 H 208 V 304 H 128 V 208 H 208 Z" fill="url(#gradTop)" filter="url(#shadow)" />
    
    <!-- Heartbeat intersecting -->
    <path d="M 64 256 L 152 256 L 192 160 L 280 344 L 320 256 L 448 256" stroke="#047857" stroke-width="28" stroke-linecap="round" stroke-linejoin="round" />
    
    <!-- AI nodes -->
    <circle cx="192" cy="160" r="14" fill="#ffffff" />
    <circle cx="280" cy="344" r="14" fill="#ffffff" />
    <circle cx="320" cy="256" r="14" fill="#ffffff" />
    <circle cx="256" cy="256" r="12" fill="#ffffff" opacity="0.5" />
</svg>
